<svg xmlns="http://www.w3.org/2000/svg" viewBox="0 0 120 120" role="img" aria-label="الملوّن"><circle cx="60" cy="63.5" r="56.5" fill="#984432"/><circle cx="60" cy="56.5" r="56.5" fill="#FF6E4F"/><clipPath id="c-colorist"><circle cx="60" cy="56.5" r="56.5"/></clipPath><g clip-path="url(#c-colorist)" transform="translate(0 -3.5)"><path d="M22 118 q0 -30 38 -30 q38 0 38 30z" fill="#35D0FF" stroke="#0B0C12" stroke-width="5" stroke-linejoin="round" stroke-linecap="round"/><rect x="52" y="74" width="16" height="16" fill="#FFE3C4" stroke="#0B0C12" stroke-width="3" stroke-linejoin="round" stroke-linecap="round"/><circle cx="60" cy="54" r="26" fill="#FFE3C4" stroke="#0B0C12" stroke-width="5" stroke-linejoin="round" stroke-linecap="round"/><path d="M34 50 q2 -24 26 -24 q24 0 26 24 q-6 -10 -26 -10 q-20 0 -26 10z" fill="#A7ABBE" stroke="#0B0C12" stroke-width="5" stroke-linejoin="round" stroke-linecap="round"/><circle cx="52.4" cy="54" r="2.66" fill="#0B0C12"/><circle cx="67.6" cy="54" r="2.66" fill="#0B0C12"/><path d="M53.35 63.5 q6.65 5.7 13.3 0" stroke="#0B0C12" stroke-width="2.28" fill="none" stroke-linecap="round"/><circle cx="44" cy="62" r="3.5" fill="#FF6E4F" opacity=".4"/><circle cx="76" cy="62" r="3.5" fill="#FF6E4F" opacity=".4"/><circle cx="51" cy="54" r="8" fill="#FF4FB8" fill-opacity=".5" stroke="#0B0C12" stroke-width="3" stroke-linejoin="round" stroke-linecap="round"/><circle cx="69" cy="54" r="8" fill="#FF4FB8" fill-opacity=".5" stroke="#0B0C12" stroke-width="3" stroke-linejoin="round" stroke-linecap="round"/><path d="M59 54 h2" stroke="#0B0C12" stroke-width="3" stroke-linejoin="round" stroke-linecap="round"/></g></svg>