<svg xmlns="http://www.w3.org/2000/svg" viewBox="0 0 120 120" role="img" aria-label="المنتجة"><circle cx="60" cy="63.5" r="56.5" fill="#779828"/><circle cx="60" cy="56.5" r="56.5" fill="#C6FF3D"/><clipPath id="c-producer"><circle cx="60" cy="56.5" r="56.5"/></clipPath><g clip-path="url(#c-producer)" transform="translate(0 -3.5)"><path d="M22 118 q0 -30 38 -30 q38 0 38 30z" fill="#0B0C12" stroke="#0B0C12" stroke-width="5" stroke-linejoin="round" stroke-linecap="round"/><rect x="52" y="74" width="16" height="16" fill="#FFE3C4" stroke="#0B0C12" stroke-width="3" stroke-linejoin="round" stroke-linecap="round"/><circle cx="60" cy="54" r="26" fill="#FFE3C4" stroke="#0B0C12" stroke-width="5" stroke-linejoin="round" stroke-linecap="round"/><path d="M34 50 q2 -24 26 -24 q24 0 26 24 v16 q-6 -2 -8 -8 q-2 -14 -18 -14 q-16 0 -18 14 q-2 6 -8 8z" fill="#3B2A1E" stroke="#0B0C12" stroke-width="5" stroke-linejoin="round" stroke-linecap="round"/><circle cx="52.4" cy="54" r="2.66" fill="#0B0C12"/><circle cx="67.6" cy="54" r="2.66" fill="#0B0C12"/><path d="M55.25 63.5 q4.75 4.75 11.4 -3" stroke="#0B0C12" stroke-width="2.28" fill="none" stroke-linecap="round"/><circle cx="44" cy="62" r="3.5" fill="#FF6E4F" opacity=".4"/><circle cx="76" cy="62" r="3.5" fill="#FF6E4F" opacity=".4"/><rect x="78" y="84" width="16" height="30" rx="4" fill="#0B0C12" stroke="#0B0C12" stroke-width="5" stroke-linejoin="round" stroke-linecap="round"/><rect x="81" y="88" width="10" height="20" rx="2" fill="#35D0FF"/></g></svg>