<svg xmlns="http://www.w3.org/2000/svg" viewBox="0 0 120 120" role="img" aria-label="مهندسة البث"><circle cx="60" cy="63.5" r="56.5" fill="#985d1f"/><circle cx="60" cy="56.5" r="56.5" fill="#FF9A2E"/><clipPath id="c-broadcast"><circle cx="60" cy="56.5" r="56.5"/></clipPath><g clip-path="url(#c-broadcast)" transform="translate(0 -3.5)"><path d="M22 118 q0 -30 38 -30 q38 0 38 30z" fill="#0B0C12" stroke="#0B0C12" stroke-width="5" stroke-linejoin="round" stroke-linecap="round"/><rect x="52" y="74" width="16" height="16" fill="#C98B5F" stroke="#0B0C12" stroke-width="3" stroke-linejoin="round" stroke-linecap="round"/><circle cx="60" cy="54" r="26" fill="#C98B5F" stroke="#0B0C12" stroke-width="5" stroke-linejoin="round" stroke-linecap="round"/><path d="M34 50 q2 -24 26 -24 q24 0 26 24 v30 h-8 v-24 q-2 -10 -18 -10 q-16 0 -18 10 v24 h-8z" fill="#3B2A1E" stroke="#0B0C12" stroke-width="5" stroke-linejoin="round" stroke-linecap="round"/><circle cx="52.4" cy="54" r="2.66" fill="#0B0C12"/><circle cx="67.6" cy="54" r="2.66" fill="#0B0C12"/><path d="M53.35 63.5 q6.65 5.7 13.3 0" stroke="#0B0C12" stroke-width="2.28" fill="none" stroke-linecap="round"/><circle cx="44" cy="62" r="3.5" fill="#FF6E4F" opacity=".4"/><circle cx="76" cy="62" r="3.5" fill="#FF6E4F" opacity=".4"/><path d="M34 54 v-6 a26 26 0 0 1 52 0 v6" fill="none" stroke="#0B0C12" stroke-width="5" stroke-linejoin="round" stroke-linecap="round"/><rect x="28" y="48" width="12" height="18" rx="5" fill="#9B7CFF" stroke="#0B0C12" stroke-width="5" stroke-linejoin="round" stroke-linecap="round"/><rect x="80" y="48" width="12" height="18" rx="5" fill="#9B7CFF" stroke="#0B0C12" stroke-width="5" stroke-linejoin="round" stroke-linecap="round"/><path d="M86 64 q-6 18 -20 18" fill="none" stroke="#0B0C12" stroke-width="3" stroke-linejoin="round" stroke-linecap="round"/><circle cx="66" cy="82" r="4" fill="#0B0C12"/></g></svg>